# xmcd
#
# Track frame offsets: 
#        150
#        10095
#        27140
#        36567
#        49125
#        58745
#        69447
#        79175
#        88672
#        101277
#
# Disc length: 1557 seconds
#
# Revision: 0
# Processed by: cddbd v1.5.2PL0 Copyright (c) Steve Scherf et al.
# Submitted via: ExactAudioCopy v0.95b4
#
DISCID=7906130a
DTITLE=Jimmy Martin and Ralph Stanely - First Time Together
DYEAR=1995
DGENRE=Bluegrass
TTITLE0=I'm Going Down The Road
TTITLE1=In The Pines
TTITLE2=Stone Walls and Steel Bars
TTITLE3=Rabbit In The Log
TTITLE4=Footprints In The Snow
TTITLE5=Roll On Buddy, Roll On
TTITLE6=Darling Brown Eyes
TTITLE7=God Gave You To Me
TTITLE8=Don't Let Your Sweet Love Die
TTITLE9=I Only Exist
EXTD=
EXTT0=
EXTT1=
EXTT2=
EXTT3=
EXTT4=
EXTT5=
EXTT6=
EXTT7=
EXTT8=
EXTT9=
PLAYORDER=
